<svg width="1440" height="1024" viewBox="0 0 1440 1024" fill="none" xmlns="http://www.w3.org/2000/svg">
<rect width="1440" height="1024" fill="white"/>
<rect width="1440" height="341" fill="#009900"/>
<rect y="341" width="1440" height="342" fill="#FF6600"/>
<rect y="683" width="1440" height="341" fill="#009900"/>
<path d="M865 491.786V531.638C865 506.588 828.987 494.633 810.98 491.786V446.242C847.373 446.242 862.157 476.605 865 491.786Z" fill="white"/>
<path fill-rule="evenodd" clip-rule="evenodd" d="M1010 611.34L984.412 588.568H927.549V543.024L899.118 514.558V588.568H819.51C830.882 580.977 853.627 563.519 853.627 554.41C853.627 543.024 850.784 531.638 833.725 534.484C820.078 536.761 807.19 571.489 802.451 588.568H779.706V389.312L748.431 358V588.568H722.843V508.865C720.948 504.121 714.882 494.633 705.784 494.633H680.196C662.19 505.07 626.176 527.652 626.176 534.484V588.568H606.275V460.475L575 491.786V588.568H555.098V503.172L489.706 568.642H523.824V588.568H452.745L430 611.34H745.588C743.693 614.187 738.196 620.449 731.373 622.726C724.549 625.003 665.98 623.675 637.549 622.726L611.961 648.345H722.843C737.059 639.805 765.49 620.449 765.49 611.34H802.451C806.242 630.317 820.537 660.341 839.412 668.27L850 671H865L873.529 668.27C886.797 658.782 913.333 638.097 913.333 631.266C910.407 631.266 907.146 632.606 902.862 634.366C894.658 637.738 882.702 642.652 862.157 642.652C837.137 642.652 821.405 621.777 816.667 611.34H1010ZM691.569 531.638V588.568H657.451V531.638C659.346 525.945 665.412 514.558 674.51 514.558C683.608 514.558 689.673 525.945 691.569 531.638Z" fill="white"/>
<path d="M676 367L688.124 404.313H727.357L695.617 427.374L707.74 464.687L676 441.626L644.26 464.687L656.383 427.374L624.643 404.313H663.876L676 367Z" fill="#009900"/>
</svg>
