<svg width="512" height="512" viewBox="0 0 512 512" fill="none" xmlns="http://www.w3.org/2000/svg">
<g clip-path="url(#clip0)">
<rect width="512" height="512" fill="white"/>
<rect x="-105" width="721" height="170" fill="#009900"/>
<rect x="-105" y="170" width="721" height="172" fill="#FF6600"/>
<rect x="-105" y="342" width="721" height="170" fill="#009900"/>
<path d="M327.5 246.679V266.541C327.5 254.057 309.493 248.098 300.49 246.679V223.98C318.686 223.98 326.078 239.113 327.5 246.679Z" fill="white"/>
<path fill-rule="evenodd" clip-rule="evenodd" d="M400 306.265L387.206 294.916H358.775V272.216L344.559 258.029V294.916H304.755C310.441 291.132 321.814 282.431 321.814 277.891C321.814 272.216 320.392 266.541 311.863 267.96C305.039 269.095 298.595 286.403 296.225 294.916H284.853V195.606L269.216 180V294.916H256.422V255.192C255.474 252.827 252.441 248.098 247.892 248.098H235.098C226.095 253.3 208.088 264.555 208.088 267.96V294.916H198.137V231.074L182.5 246.679V294.916H172.549V252.354L139.853 284.985H156.912V294.916H121.373L110 306.265H267.794C266.846 307.684 264.098 310.805 260.686 311.94C257.275 313.075 227.99 312.413 213.775 311.94L200.98 324.709H256.422C263.529 320.452 277.745 310.805 277.745 306.265H296.225C298.121 315.723 305.268 330.687 314.706 334.64L320 336H327.5L331.765 334.64C338.399 329.91 351.667 319.601 351.667 316.196C350.204 316.196 348.573 316.864 346.431 317.742C342.329 319.422 336.351 321.871 326.078 321.871C313.569 321.871 305.703 311.467 303.333 306.265H400ZM240.784 266.541V294.916H223.725V266.541C224.673 263.704 227.706 258.029 232.255 258.029C236.804 258.029 239.837 263.704 240.784 266.541Z" fill="white"/>
<path d="M233.5 184L239.674 202.657H259.654L243.49 214.187L249.664 232.843L233.5 221.313L217.336 232.843L223.51 214.187L207.346 202.657H227.326L233.5 184Z" fill="#009900"/>
</g>
<defs>
<clipPath id="clip0">
<rect width="512" height="512" fill="white"/>
</clipPath>
</defs>
</svg>
